#!OML:ASF F:\VICON\USERDATA\INSTALL\rory3\rory3.ASF
:FULLY-SPECIFIED
:DEGREES
1489
root 0.116343 17.8111 -4.39721 14.4879 -10.5078 4.02822
lowerback 19.6103 -0.966967 -0.858528
upperback 5.87649 -1.23777 3.6158
thorax -4.51124 -0.636453 4.64803
lowerneck -18.1846 -5.96312 -11.3866
upperneck 17.0132 -8.00936 13.6736
head 9.40894 -3.09529 5.54312
rclavicle 1.98785e-014 -1.03368e-014
rhumerus -23.9385 20.0078 -89.5378
rradius 50.2869
rwrist 26.8498
rhand -20.201 8.9565
rfingers 7.12502
rthumb 6.14579 -20.9344
lclavicle 1.98785e-014 -1.03368e-014
lhumerus -27.2026 -30.3817 100.627
lradius 41.9563
lwrist -18.071
lhand -22.5817 11.7046
lfingers 7.12502
lthumb 3.84709 41.6496
rfemur -39.8543 -4.0382 17.1981
rtibia 32.4092
rfoot -4.25196 -1.93244
rtoes 17.8647
lfemur -31.1649 6.51915 -18.3328
ltibia 55.0963
lfoot -5.89872 -1.23107
ltoes -21.3866
1490
root 0.114278 17.8152 -4.38479 14.9819 -10.8459 4.18835
lowerback 19.7575 -0.912406 -0.854461
upperback 6.08145 -1.17065 3.63314
thorax -4.37288 -0.609731 4.64942
lowerneck -18.1886 -5.86635 -11.3557
upperneck 17.322 -7.83609 13.3341
head 9.47272 -3.04233 5.44924
rclavicle -1.98785e-014 -1.11319e-014
rhumerus -24.3405 17.7391 -89.1996
rradius 52.9873
rwrist 28.1315
rhand -18.2738 8.88029
rfingers 7.12502
rthumb 8.00605 -20.9481
lclavicle -1.98785e-014 -1.11319e-014
lhumerus -27.2443 -29.1866 100.566
lradius 43.1726
lwrist -17.9992
lhand -23.55 9.42165
lfingers 7.12502
lthumb 2.91197 39.3815
rfemur -40.4918 -3.91905 17.0236
rtibia 32.5766
rfoot -4.27633 -1.77674
rtoes 17.6352
lfemur -32.2308 6.33625 -18.4973
ltibia 54.9148
lfoot -5.99705 -1.40997
ltoes -16.9041
1491
root 0.113698 17.8138 -4.38153 15.4134 -11.1438 4.36192
lowerback 20.0753 -0.864447 -0.901269
upperback 6.29281 -1.11897 3.67161
thorax -4.31266 -0.589635 4.71238
lowerneck -18.0958 -5.7415 -11.2658
upperneck 17.5815 -7.62374 12.9104
head 9.4909 -2.98044 5.31988
rclavicle -1.59028e-015 -2.70347e-014
rhumerus -24.6326 16.2728 -88.8117
rradius 55.4804
rwrist 29.8359
rhand -16.8072 7.35088
rfingers 7.12502
rthumb 9.42141 -22.4185
lclavicle -1.59028e-015 -2.70347e-014
lhumerus -27.2568 -28.061 100.405
lradius 44.603
lwrist -17.9175
lhand -24.4044 8.38995
lfingers 7.12502
lthumb 2.08679 38.3595
rfemur -41.136 -3.70093 16.7793
rtibia 32.8015
rfoot -4.34316 -1.78131
rtoes 17.7866
lfemur -33.2974 6.11894 -18.6421
ltibia 54.705
lfoot -6.39656 -1.46496
ltoes -17.2808
1492
root 0.11366 17.7995 -4.39442 15.7681 -11.4444 4.49297
lowerback 20.758 -0.798107 -0.949146
upperback 6.4712 -1.04129 3.67543
thorax -4.47841 -0.552391 4.74551
lowerneck -17.9776 -5.59149 -11.0079
upperneck 17.7992 -7.41257 12.4523
head 9.48359 -2.91285 5.14824
rclavicle 3.57812e-014 1.59028e-015
rhumerus -24.6273 15.8038 -88.5794
rradius 57.3859
rwrist 30.0413
rhand -16.105 5.04732
rfingers 7.12502
rthumb 10.0988 -24.6903
lclavicle 3.57812e-014 1.59028e-015
lhumerus -27.1252 -27.0237 100.035
lradius 45.9393
lwrist -18.4251
lhand -24.6557 9.50373
lfingers 7.12502
lthumb 1.84409 39.4755
rfemur -41.8138 -3.25253 16.518
rtibia 33.0653
rfoot -4.39389 -2.01253
rtoes 17.7469
lfemur -34.3921 5.8052 -18.6598
ltibia 54.4879
lfoot -6.83054 -1.28429
ltoes -18.5393
1493
root 0.114616 17.7722 -4.42031 16.1236 -11.6902 4.49501
lowerback 21.6947 -0.76467 -0.953185
upperback 6.62399 -0.991758 3.72393
thorax -4.79692 -0.526233 4.81759
lowerneck -18.017 -5.43822 -10.7571
upperneck 18.1021 -7.19213 12.017
head 9.53711 -2.83341 4.98843
rclavicle -2.38542e-015 -1.98785e-014
rhumerus -24.1973 16.1772 -88.4864
rradius 58.8032
rwrist 28.0716
rhand -15.3187 4.01272
rfingers 7.12502
rthumb 10.8573 -25.6866
lclavicle -2.38542e-015 -1.98785e-014
lhumerus -26.7032 -26.2603 99.3921
lradius 47.1167
lwrist -19.059
lhand -24.2613 11.1858
lfingers 7.12502
lthumb 2.22499 41.154
rfemur -42.5634 -2.77242 16.4058
rtibia 33.3555
rfoot -4.40817 -2.31651
rtoes 17.8156
lfemur -35.5539 5.40319 -18.4669
ltibia 54.2203
lfoot -7.02322 -0.805124
ltoes -19.6828
1494
root 0.118325 17.756 -4.43422 16.6102 -11.7175 4.42647
lowerback 22.2773 -0.860234 -0.745932
upperback 6.78824 -1.06395 3.81159
thorax -4.91141 -0.562894 4.8289
lowerneck -18.1361 -5.30664 -10.5165
upperneck 18.6247 -6.98669 11.4816
head 9.68213 -2.76841 4.79656
rclavicle -1.35174e-014 2.70347e-014
rhumerus -23.6103 17.0962 -88.394
rradius 59.7375
rwrist 25.8299
rhand -14.4667 3.83045
rfingers 7.12502
rthumb 11.6791 -25.824
lclavicle -1.35174e-014 2.70347e-014
lhumerus -26.1517 -25.8636 98.6998
lradius 48.1608
lwrist -19.3171
lhand -23.908 12.0697
lfingers 7.12502
lthumb 2.56618 42.034
rfemur -43.3219 -2.71103 16.487
rtibia 33.6391
rfoot -4.44134 -2.32514
rtoes 18.0194
lfemur -36.751 4.83454 -18.1681
ltibia 53.7962
lfoot -7.1639 -0.282783
ltoes -23.0647
1495
root 0.12533 17.7461 -4.43457 17.0945 -11.7236 4.49314
lowerback 22.5826 -0.986483 -0.610287
upperback 6.96685 -1.19327 3.89338
thorax -4.86135 -0.630131 4.88038
lowerneck -17.9533 -5.17657 -10.336
upperneck 18.9779 -6.76222 10.8878
head 9.71236 -2.71694 4.5946
rclavicle -1.19271e-014 2.38542e-014
rhumerus -23.021 18.4197 -88.1727
rradius 60.0678
rwrist 24.7006
rhand -14.3024 3.583
rfingers 7.12502
rthumb 11.8375 -26.0624
lclavicle -1.19271e-014 2.38542e-014
lhumerus -25.813 -25.4434 98.2587
lradius 49.1917
lwrist -19.4428
lhand -24.0481 11.8505
lfingers 7.12502
lthumb 2.4309 41.8164
rfemur -44.0506 -2.84953 16.4649
rtibia 33.9307
rfoot -4.46433 -2.20668
rtoes 17.9288
lfemur -37.7883 4.17852 -18.0207
ltibia 53.1386
lfoot -7.5013 0.178425
ltoes -27.1975
1496
root 0.130366 17.7299 -4.43276 17.4191 -11.8085 4.65167
lowerback 22.9802 -1.07393 -0.623826
upperback 7.15474 -1.30534 3.94526
thorax -4.84549 -0.688637 4.98503
lowerneck -17.4379 -5.01468 -10.3341
upperneck 19.0176 -6.51409 10.5782
head 9.58815 -2.64951 4.52446
rclavicle 9.54166e-015 2.06736e-014
rhumerus -22.5743 19.6755 -87.9246
rradius 60.125
rwrist 25.0972
rhand -14.9998 3.37481
rfingers 7.12502
rthumb 11.1649 -26.3081
lclavicle 9.54166e-015 2.06736e-014
lhumerus -25.6641 -24.9925 97.9204
lradius 50.2455
lwrist -20.0201
lhand -23.8941 11.4143
lfingers 7.12502
lthumb 2.57967 41.3785
rfemur -44.6327 -2.74591 16.2213
rtibia 34.2216
rfoot -4.60727 -2.26408
rtoes 17.9094
lfemur -38.5397 3.59652 -17.9609
ltibia 52.2564
lfoot -8.03846 0.584118
ltoes -27.852
1497
root 0.133507 17.7128 -4.4288 17.6328 -11.8929 4.86749
lowerback 23.3974 -1.14366 -0.679732
upperback 7.37151 -1.40859 3.93453
thorax -4.80787 -0.743313 5.04393
lowerneck -16.8501 -4.86122 -10.4565
upperneck 19.0523 -6.33175 10.61
head 9.47446 -2.58754 4.58865
rclavicle -2.38542e-014 -1.03368e-014
rhumerus -22.3048 20.6419 -87.7376
rradius 60.1622
rwrist 26.4686
rhand -15.8941 3.65987
rfingers 7.12502
rthumb 10.3023 -26.0678
lclavicle -2.38542e-014 -1.03368e-014
lhumerus -25.4722 -24.8791 97.478
lradius 51.1564
lwrist -21.0391
lhand -23.0917 11.827
lfingers 7.12502
lthumb 3.35458 41.7803
rfemur -45.1191 -2.7112 15.9473
rtibia 34.5597
rfoot -4.77241 -2.24843
rtoes 17.9823
lfemur -39.114 3.00837 -17.9176
ltibia 51.1927
lfoot -8.63494 0.791568
ltoes -24.6396
1498
root 0.138699 17.7006 -4.42422 17.9044 -11.9957 5.02333
lowerback 23.7162 -1.22096 -0.672036
upperback 7.55718 -1.50972 3.8969
thorax -4.75643 -0.796241 5.03325
lowerneck -16.3703 -4.70901 -10.5184
upperneck 19.428 -6.17719 10.6044
head 9.49855 -2.53352 4.63194
rclavicle 1.51076e-014 2.94201e-014
rhumerus -22.2335 21.7205 -87.588
rradius 60.4127
rwrist 27.3226
rhand -16.3205 4.50495
rfingers 7.12502
rthumb 9.891 -25.2427
lclavicle 1.51076e-014 2.94201e-014
lhumerus -25.3359 -25.0346 97.0095
lradius 51.9261
lwrist -21.8213
lhand -22.4472 12.434
lfingers 7.12502
lthumb 3.97691 42.3766
rfemur -45.6558 -2.81909 15.8116
rtibia 34.9277
rfoot -4.88547 -2.03648
rtoes 17.9927
lfemur -39.7112 2.44527 -17.7966
ltibia 50.0328
lfoot -9.08998 0.885969
ltoes -22.9608
